# xmcd
# 
# Track frame offsets:
#     150
#     11488
#     27890
#     39957
#     50269
#     64861
#     74467
#     85885
#     98527
#     111615
#     122716
#     134960
#     149579
#     162804
#     174857
#     185778
#     199295
#     211338
#     223982
#     238396
#     251809
#     261646
#     271100
# 
# Disc length: 3801
# 
# Revision: 1
# Processed by: cddbd v1.5.2PL0 Copyright (c) Steve Scherf et al.
# Submitted via: BonkEnc v1.0.15
# 
DISCID=6d0ed717
DTITLE=Roy Orbison j - 's Many Moods and The Big O 
DYEAR=2004
DGENRE=Blues
TTITLE0=Truly, Truly True
TTITLE1=Unchained Melody
TTITLE2=I Recommend Her
TTITLE3=More
TTITLE4=Heartache
TTITLE5=Amy
TTITLE6=Good Morning Dear
TTITLE7=What Now My Love
TTITLE8=Walk On
TTITLE9=Yesterday's Child
TTITLE10=Try To Remember
TTITLE11=Break My Mind
TTITLE12=Help Me Rhonda
TTITLE13=Only You
TTITLE14=Down The Line
TTITLE15=Money
TTITLE16=When I Stop Dreaming
TTITLE17=Loving Touch
TTITLE18=Land Of 1000 Dances
TTITLE19=Scarlet Ribbons
TTITLE20=She Won't Hang Her Love Out (On The Line)
TTITLE21=Casting My Spell
TTITLE22=Penny Arcade
EXTD=
EXTT0=
EXTT1=
EXTT2=
EXTT3=
EXTT4=
EXTT5=
EXTT6=
EXTT7=
EXTT8=
EXTT9=
EXTT10=
EXTT11=
EXTT12=
EXTT13=
EXTT14=
EXTT15=
EXTT16=
EXTT17=
EXTT18=
EXTT19=
EXTT20=
EXTT21=
EXTT22=
PLAYORDER=
